<?xml version="1.0" encoding="UTF-8"?>
<svg width="700pt" height="700pt" version="1.1" viewBox="0 0 700 700" xmlns="http://www.w3.org/2000/svg">
 <path d="m560 227.5h-420c-9.3789 0-18.043-5.0039-22.734-13.125-4.6875-8.1211-4.6875-18.129 0-26.25 4.6914-8.1211 13.355-13.125 22.734-13.125h420c9.3789 0 18.043 5.0039 22.734 13.125 4.6875 8.1211 4.6875 18.129 0 26.25-4.6914 8.1211-13.355 13.125-22.734 13.125zm26.25 131.25c0-6.9609-2.7656-13.641-7.6875-18.562s-11.602-7.6875-18.562-7.6875h-245c-9.3789 0-18.043 5.0039-22.734 13.125-4.6875 8.1211-4.6875 18.129 0 26.25 4.6914 8.1211 13.355 13.125 22.734 13.125h245c6.9609 0 13.641-2.7656 18.562-7.6875s7.6875-11.602 7.6875-18.562z"/>
</svg>
